<svg width="24" height="24" fill="none" xmlns="http://www.w3.org/2000/svg">
  <path d="M12 3.017c2.933 0 3.3 0 4.492.091 3.025.092 4.4 1.559 4.491 4.492.092 1.192.092 1.467.092 4.4 0 2.933 0 3.3-.092 4.4-.091 2.933-1.558 4.4-4.491 4.492-1.192.091-1.467.091-4.492.091-2.933 0-3.3 0-4.4-.091-3.025-.092-4.4-1.559-4.492-4.492-.091-1.192-.091-1.467-.091-4.4 0-2.933 0-3.3.091-4.4C3.2 4.667 4.667 3.2 7.6 3.108c1.1-.091 1.467-.091 4.4-.091ZM12 1c-3.025 0-3.392 0-4.492.092-4.033.183-6.233 2.383-6.416 6.416C1 8.608 1 8.975 1 12s0 3.392.092 4.492c.183 4.033 2.383 6.233 6.416 6.416C8.608 23 8.975 23 12 23s3.392 0 4.492-.092c4.033-.183 6.233-2.383 6.416-6.416C23 15.392 23 15.025 23 12s0-3.392-.092-4.492c-.183-4.033-2.383-6.233-6.416-6.416C15.392 1 15.025 1 12 1Zm0 5.317c-3.117 0-5.683 2.566-5.683 5.683S8.883 17.683 12 17.683s5.683-2.566 5.683-5.683S15.117 6.317 12 6.317Zm0 9.35A3.677 3.677 0 0 1 8.333 12 3.677 3.677 0 0 1 12 8.333 3.677 3.677 0 0 1 15.667 12 3.677 3.677 0 0 1 12 15.667ZM17.867 4.85c-.734 0-1.284.55-1.284 1.283 0 .734.55 1.284 1.284 1.284.733 0 1.283-.55 1.283-1.284 0-.733-.55-1.283-1.283-1.283Z" fill="#14181D"/>
</svg>
