<svg width="94" height="52" fill="none" xmlns="http://www.w3.org/2000/svg">
  <path d="M42.29.02c.548 0 1.057.078 1.567.254.509.176.96.45 1.351.842.392.392.705.98.94 1.724s.353 1.724.353 2.88c0 .156-.392.646-1.156 1.41-.764.763-1.939 2.036-3.486 3.8-1.547 1.762-3.486 4.093-5.837 6.992-2.33 2.898-5.073 6.6-8.207 11.066-3.173 4.505-6.15 8.442-8.892 11.81-2.762 3.37-5.25 5.994-7.482 7.894-2.233 1.9-4.211 2.997-5.915 3.252-1.704.274-3.134-.451-4.27-2.155C.375 48.457-.037 46.89.003 45.127c.039-1.782.391-3.604 1.038-5.484a26.466 26.466 0 0 1 2.663-5.523c1.136-1.802 2.37-3.408 3.702-4.818 1.332-1.41 2.703-2.566 4.074-3.448 1.371-.881 2.625-1.312 3.76-1.312.158 0 .314.313.432.9.117.608.215 1.294.254 2.038.04.744 0 1.45-.117 2.076-.118.627-.372.94-.744.94-.745.04-1.626.45-2.605 1.215-.98.764-1.979 1.762-2.978 2.938a39.709 39.709 0 0 0-2.86 3.878 34.08 34.08 0 0 0-2.252 4.035c-.607 1.292-.999 2.448-1.194 3.447-.196.999-.079 1.665.352 1.998.431.333 1.136.078 2.155-.784 1.018-.862 2.252-2.115 3.662-3.8 1.41-1.665 2.977-3.662 4.662-5.954 1.684-2.292 3.408-4.7 5.17-7.208a368.794 368.794 0 0 0 5.172-7.56c1.684-2.527 3.251-4.877 4.661-7.051a655.006 655.006 0 0 0 3.643-5.68c1-1.607 1.704-2.723 2.135-3.35a42.959 42.959 0 0 0-6.424 1.352c-2.076.607-3.878 1.351-5.426 2.252-1.547.901-2.703 1.978-3.486 3.232-.784 1.254-.92 2.683-.47 4.27.078.294-.04.372-.372.254-.333-.117-.705-.41-1.136-.88-.412-.451-.784-1.098-1.058-1.94-.294-.842-.333-1.822-.117-2.938a9.192 9.192 0 0 1 1.762-4.133 13.82 13.82 0 0 1 3.389-3.173c1.332-.9 2.84-1.645 4.485-2.252a37.605 37.605 0 0 1 5.073-1.47 48.95 48.95 0 0 1 5.17-.841A64.235 64.235 0 0 1 40.999 0h1.292v.02ZM57.568 49.103c-.294 0-.627-.078-1-.254a3.425 3.425 0 0 1-1.096-.823 4.899 4.899 0 0 1-.901-1.37c-.255-.55-.372-1.196-.372-1.94 0-2.429.411-4.838 1.214-7.247a51.218 51.218 0 0 1 2.664-6.522c.96-1.94 1.821-3.526 2.566-4.74.744-1.215 1.038-1.822.881-1.822-.117 0-.568.314-1.351.94-.784.627-1.724 1.43-2.86 2.39a93.41 93.41 0 0 0-3.604 3.232 75.511 75.511 0 0 0-3.545 3.545 40.112 40.112 0 0 0-2.703 3.192c-.705.96-1.058 1.724-1.058 2.253 0 .176-.098.333-.274.51-.196.175-.51.254-.98.254s-.9-.372-1.35-1.097c-.432-.725-.667-1.88-.667-3.486 0-.745.255-1.665.745-2.723.49-1.058 1.116-2.213 1.84-3.447a94.793 94.793 0 0 1 2.292-3.702c.784-1.234 1.489-2.37 2.077-3.408-.177 0-.706.392-1.626 1.155-.92.764-2.057 1.763-3.389 2.938a207.055 207.055 0 0 0-4.27 3.918c-1.508 1.43-2.898 2.8-4.171 4.132a59.679 59.679 0 0 0-3.173 3.565c-.843 1.038-1.254 1.783-1.254 2.194 0 .176-.098.333-.274.51-.196.175-.51.254-.98.254s-.9-.372-1.351-1.097c-.43-.725-.666-1.88-.666-3.486 0-.921.216-2.038.666-3.35.43-1.312.999-2.683 1.684-4.113a49.603 49.603 0 0 1 2.312-4.23 49.15 49.15 0 0 1 2.566-3.8c.861-1.136 1.684-2.037 2.467-2.723.784-.685 1.45-1.038 1.94-1.038 1.136 0 2.036.157 2.761.47.705.314 1.058.744 1.058 1.293 0 .254-.255.685-.784 1.293-.528.607-1.077 1.273-1.684 1.978a37.67 37.67 0 0 0-1.684 2.096c-.53.685-.784 1.233-.784 1.664 0 .079.04.216.098.373.059.176.157.195.274.058.04-.039.431-.391 1.156-1.038.724-.646 1.625-1.469 2.703-2.448 1.077-.98 2.233-2.037 3.506-3.173a126.66 126.66 0 0 1 3.604-3.095c1.136-.94 2.095-1.723 2.879-2.39.783-.646 1.253-.979 1.37-.979.471 0 .941.176 1.45.53.51.352.96.802 1.352 1.311.392.53.724 1.058.999 1.607.274.548.411.998.411 1.37 0 .157-.294.549-.881 1.137-.588.587-1.215 1.253-1.92 1.997a39.143 39.143 0 0 0-1.92 2.253c-.587.744-.88 1.351-.88 1.821 0 .177.058.255.195.255.157 0 .647-.294 1.45-.881.783-.588 1.762-1.313 2.879-2.194a495.69 495.69 0 0 0 3.643-2.86 495.539 495.539 0 0 1 3.643-2.86 215.699 215.699 0 0 1 2.88-2.193c.783-.588 1.253-.881 1.37-.881.45 0 .92.176 1.41.529.49.352.921.802 1.352 1.312.411.529.744 1.057.999 1.606.255.548.372.999.372 1.37 0 .51-.372 1.313-1.136 2.41a81.35 81.35 0 0 1-2.86 3.878 298.637 298.637 0 0 0-3.701 4.858 129.629 129.629 0 0 0-3.702 5.21c-1.156 1.723-2.096 3.368-2.86 4.975-.744 1.606-1.136 2.996-1.136 4.172 0 .254.098.352.313.313.216-.04.45-.157.725-.372.274-.216.568-.45.901-.745.333-.293.627-.548.882-.744a96.93 96.93 0 0 1 8.05-6.679c2.742-2.037 5.405-3.643 7.99-4.857 2.586-1.215 5.054-1.92 7.365-2.135 2.312-.216 4.349.274 6.111 1.45a5.894 5.894 0 0 1 2.155 2.448c.47.998.783 1.958.94 2.879.137.92.157 1.665.04 2.233-.118.568-.275.724-.432.47-1.292-1.587-3.094-2.547-5.425-2.88-2.311-.332-4.877-.156-7.678.53-2.801.685-5.7 1.801-8.677 3.33a47.425 47.425 0 0 0-8.422 5.483c-.588.47-1.136.92-1.665 1.371-.529.47-1.019.882-1.508 1.254-.49.372-.96.666-1.41.881a1.964 1.964 0 0 1-1.136.372Z" fill="#F4CE66"/>
</svg>
